<?xml version="1.0" encoding="UTF-8" standalone="no"?>
<!-- Created with Inkscape (http://www.inkscape.org/) -->

<svg
   xmlns:dc="http://purl.org/dc/elements/1.1/"
   xmlns:cc="http://creativecommons.org/ns#"
   xmlns:rdf="http://www.w3.org/1999/02/22-rdf-syntax-ns#"
   xmlns:svg="http://www.w3.org/2000/svg"
   xmlns="http://www.w3.org/2000/svg"
   xmlns:sodipodi="http://sodipodi.sourceforge.net/DTD/sodipodi-0.dtd"
   xmlns:inkscape="http://www.inkscape.org/namespaces/inkscape"
   width="193.82108mm"
   height="63.955849mm"
   viewBox="0 0 193.82108 63.955848"
   version="1.1"
   id="svg8"
   inkscape:version="0.92.3 (2405546, 2018-03-11)"
   sodipodi:docname="20210504124043!TelAvivYafoAcademic.svg">
  <defs
     id="defs2">
    <clipPath
       clipPathUnits="userSpaceOnUse"
       id="clipPath1976">
      <path
         d="M 0,0 H 776.693 V 521.575 H 0 Z"
         id="path1974"
         inkscape:connector-curvature="0" />
    </clipPath>
    <clipPath
       clipPathUnits="userSpaceOnUse"
       id="clipPath1992">
      <path
         d="M 0,0 H 776.693 V 521.575 H 0 Z"
         id="path1990"
         inkscape:connector-curvature="0" />
    </clipPath>
    <clipPath
       clipPathUnits="userSpaceOnUse"
       id="clipPath2006">
      <path
         d="M 0,0 H 776.693 V 521.575 H 0 Z"
         id="path2004"
         inkscape:connector-curvature="0" />
    </clipPath>
    <clipPath
       clipPathUnits="userSpaceOnUse"
       id="clipPath2024">
      <path
         d="M 0,0 H 776.693 V 521.575 H 0 Z"
         id="path2022"
         inkscape:connector-curvature="0" />
    </clipPath>
  </defs>
  <sodipodi:namedview
     id="base"
     pagecolor="#ffffff"
     bordercolor="#666666"
     borderopacity="1.0"
     inkscape:pageopacity="0.0"
     inkscape:pageshadow="2"
     inkscape:zoom="0.49497475"
     inkscape:cx="198.88852"
     inkscape:cy="-4.0654331"
     inkscape:document-units="mm"
     inkscape:current-layer="layer1"
     showgrid="false"
     fit-margin-top="0"
     fit-margin-left="0"
     fit-margin-right="0"
     fit-margin-bottom="0"
     inkscape:window-width="1920"
     inkscape:window-height="1001"
     inkscape:window-x="-9"
     inkscape:window-y="-9"
     inkscape:window-maximized="1" />
  <metadata
     id="metadata5">
    <rdf:RDF>
      <cc:Work
         rdf:about="">
        <dc:format>image/svg+xml</dc:format>
        <dc:type
           rdf:resource="http://purl.org/dc/dcmitype/StillImage" />
        <dc:title></dc:title>
      </cc:Work>
    </rdf:RDF>
  </metadata>
  <g
     inkscape:label="Layer 1"
     inkscape:groupmode="layer"
     id="layer1"
     transform="translate(404.21372,-63.43181)">
    <path
       inkscape:connector-curvature="0"
       id="path1924"
       style="fill:#0198ab;fill-opacity:1;fill-rule:nonzero;stroke:none;stroke-width:1.54448271"
       d="m -376.56529,117.02418 c 19.59948,-61.978542 66.48998,-53.159546 66.48998,-53.159546 -38.59817,1.292729 -53.51633,53.595086 -55.21835,63.523026 -3.95078,-4.16856 -7.71778,-7.57878 -11.27163,-10.36348" />
    <path
       inkscape:connector-curvature="0"
       id="path1928"
       style="fill:#1ba08f;fill-opacity:1;fill-rule:nonzero;stroke:none;stroke-width:1.54448271"
       d="m -374.25536,107.75528 c -1.18462,2.84339 -2.1283,5.54006 -3.16774,8.60585 l -0.18224,-0.17761 c -0.72128,-0.59617 -3.84731,-2.83567 -8.38655,-1.163 -1.49351,0.43246 -3.81796,1.89508 -3.81796,1.89508 0.88344,-0.97766 3.05036,-2.31209 3.24188,-2.42947 -3.81024,2.23023 -3.62491,2.95923 -3.62491,2.95923 -0.26256,-0.44944 0.0494,-0.868 0.0494,-0.868 0.54057,-0.62243 2.10821,-1.97385 3.37932,-2.97158 0.12202,-1.79315 0.68576,-2.86502 1.45182,-3.49208 -8.8746,-5.45666 -16.2356,-4.94389 -18.90138,-3.71602 0.30581,-0.29037 5.62346,-8.507013 29.95833,1.3576" />
    <path
       inkscape:connector-curvature="0"
       style="fill:#ffffff;fill-opacity:1;fill-rule:nonzero;stroke:none;stroke-width:1.3672986"
       d="m -337.57626,83.41008 v 4.985157 h 1.89472 v 10.046445 h -2.23521 v 4.985168 h 7.19835 c 0.87096,0 1.28584,-0.63822 1.28584,-1.63636 V 88.395237 h 2.31333 v 15.031613 h 6.24898 V 85.044429 c 0,-0.995401 -0.41615,-1.634349 -1.28985,-1.634349 z m 18.26626,0 v 11.602673 h 6.25098 V 83.41008 Z m 7.43068,0 v 5.02522 h 2.23521 l -2.5757,14.99155 h 6.32509 l 2.27326,-14.99155 h 1.85667 V 98.443682 H -304 v 4.983168 h 7.19635 c 0.83268,0 1.28785,-0.63759 1.28785,-1.63435 V 85.204659 c 0,-1.156734 -0.60538,-1.794579 -1.43807,-1.794579 z m 17.36096,0 v 4.983156 h 7.00607 v 15.033614 h 6.25098 V 88.393236 h 1.89273 V 83.41008 Z m 16.52375,0 v 4.983156 h 8.9028 v 10.965763 h -1.6664 v 4.067851 h 5.83238 c 1.288,0 2.08499,-1.23534 2.08499,-2.39345 V 85.044429 c 0,-0.996762 -0.34076,-1.634349 -1.21174,-1.634349 z m 16.67797,0 c -0.34046,0 -0.52876,0.198162 -0.52876,0.516733 0,0.12033 0.0367,0.280028 0.15021,0.438639 l 3.71334,6.383174 -2.61576,2.271262 c -0.41702,0.359604 -0.71903,0.915297 -0.71903,1.514174 v 7.536838 c 0,0.8778 0.37927,1.35595 1.40202,1.35595 h 5.90849 v -4.065851 h -1.43807 v -4.266126 l 4.61864,8.331977 h 6.13883 c 0.37874,0 0.53076,-0.19776 0.53076,-0.47669 0,-0.12032 -0.0757,-0.32008 -0.15222,-0.47868 l -3.63522,-6.022663 2.53764,-2.233205 c 0.41566,-0.359604 0.71904,-0.915945 0.71904,-1.516183 V 84.76803 c 0,-0.877806 -0.37929,-1.35795 -1.40202,-1.35795 h -5.94655 v 4.067838 h 1.47813 v 4.54453 l -4.88703,-8.612368 z m 18.18814,0 v 4.983156 h 8.14371 v 15.033614 h 6.24899 V 85.042419 c 0,-0.995388 -0.41689,-1.632339 -1.28785,-1.632339 z m 0,7.494769 v 12.522001 h 6.28904 V 90.904849 Z m -34.86611,0.0022 v 17.304781 h 6.28903 V 90.906902 Z"
       id="path1932" />
    <g
       id="g6746"
       style="fill:#ffffff;fill-opacity:1"
       transform="matrix(1.1087319,0,0,-1.0982329,-850.89328,192.3807)">
      <path
         inkscape:connector-curvature="0"
         id="path1968"
         style="fill:#ffffff;fill-opacity:1;fill-rule:nonzero;stroke:none;stroke-width:3.1838789"
         d="m 462.56516,59.498356 h 3.359 v 15.862085 h -3.359 z" />
      <g
         transform="matrix(3.1838789,0,0,3.1838789,-1315.6216,-103.62768)"
         style="fill:#ffffff;fill-opacity:1"
         id="g1970">
        <g
           style="fill:#ffffff;fill-opacity:1"
           clip-path="url(#clipPath1976)"
           id="g1972">
          <g
             style="fill:#ffffff;fill-opacity:1"
             transform="translate(563.4218,51.6428)"
             id="g1978">
            <path
               inkscape:connector-curvature="0"
               id="path1980"
               style="fill:#ffffff;fill-opacity:1;fill-rule:nonzero;stroke:none"
               d="m 0,0 v 4.217 c 0,0.238 -0.101,0.358 -0.321,0.358 h -2.691 c -0.21,0 -0.354,-0.129 -0.354,-0.377 V 2.123 c 0,-0.218 0.085,-0.336 0.312,-0.336 h 1.578 V 2.6 h -0.827 v 1.121 h 1.249 V 0.437 h -2.312 v -0.844 h 3.08 C -0.092,-0.407 0,-0.249 0,0" />
          </g>
        </g>
      </g>
      <path
         inkscape:connector-curvature="0"
         id="path1982"
         style="fill:#ffffff;fill-opacity:1;fill-rule:nonzero;stroke:none;stroke-width:3.1838789"
         d="m 479.84407,66.165399 h 3.35581 v 9.195042 h -3.35581 z" />
      <path
         inkscape:connector-curvature="0"
         id="path1984"
         style="fill:#ffffff;fill-opacity:1;fill-rule:nonzero;stroke:none;stroke-width:3.1838789"
         d="m 484.68039,66.136744 h 5.34255 v 2.559839 h -5.34255 z" />
      <g
         transform="matrix(3.1838789,0,0,3.1838789,-1315.6216,-103.62768)"
         style="fill:#ffffff;fill-opacity:1"
         id="g1986">
        <g
           style="fill:#ffffff;fill-opacity:1"
           clip-path="url(#clipPath1992)"
           id="g1988">
          <g
             style="fill:#ffffff;fill-opacity:1"
             transform="translate(570.5392,51.2347)"
             id="g1994">
            <path
               inkscape:connector-curvature="0"
               id="path1996"
               style="fill:#ffffff;fill-opacity:1;fill-rule:nonzero;stroke:none"
               d="m 0,0 v 0.844 h -0.421 v 3.731 c 0,0.249 -0.093,0.407 -0.288,0.407 H -3.206 V 4.138 h 1.73 V 0.844 h -1.73 V 0 Z" />
          </g>
        </g>
      </g>
      <path
         inkscape:connector-curvature="0"
         id="path1998"
         style="fill:#ffffff;fill-opacity:1;fill-rule:nonzero;stroke:none;stroke-width:3.1838789"
         d="m 501.52947,66.165399 h 3.359 v 9.195042 h -3.359 z" />
      <g
         transform="matrix(3.1838789,0,0,3.1838789,-1315.6216,-103.62768)"
         style="fill:#ffffff;fill-opacity:1"
         id="g2000">
        <g
           style="fill:#ffffff;fill-opacity:1"
           clip-path="url(#clipPath2006)"
           id="g2002">
          <g
             style="fill:#ffffff;fill-opacity:1"
             transform="translate(575.5621,51.2347)"
             id="g2008">
            <path
               inkscape:connector-curvature="0"
               id="path2010"
               style="fill:#ffffff;fill-opacity:1;fill-rule:nonzero;stroke:none"
               d="m 0,0 v 0.844 h -0.421 v 3.731 c 0,0.249 -0.093,0.407 -0.288,0.407 H -3.205 V 4.138 h 1.729 V 0.844 H -3.205 V 0 Z" />
          </g>
          <g
             style="fill:#ffffff;fill-opacity:1"
             transform="translate(579.7816,51.3544)"
             id="g2012">
            <path
               inkscape:connector-curvature="0"
               id="path2014"
               style="fill:#ffffff;fill-opacity:1;fill-rule:nonzero;stroke:none"
               d="m 0,0 c 0,0.029 -0.009,0.08 -0.034,0.119 l -0.902,1.558 0.65,0.625 c 0.101,0.089 0.16,0.228 0.16,0.378 v 1.846 c 0,0.217 -0.084,0.336 -0.312,0.336 H -1.763 V 4.049 H -1.18 V 2.372 l -0.085,-0.12 -1.51,2.61 h -0.996 c -0.076,0 -0.118,-0.049 -0.118,-0.128 0,-0.03 0.009,-0.07 0.034,-0.11 L -2.944,3.087 -3.61,2.452 C -3.703,2.362 -3.771,2.223 -3.771,2.074 V 0.218 c 0,-0.218 0.085,-0.338 0.312,-0.338 h 1.317 v 0.815 h -0.575 v 1.647 l 0.111,0.149 1.526,-2.611 h 0.962 C -0.034,-0.12 0,-0.07 0,0" />
          </g>
        </g>
      </g>
      <path
         inkscape:connector-curvature="0"
         id="path2016"
         style="fill:#ffffff;fill-opacity:1;fill-rule:nonzero;stroke:none;stroke-width:3.1838789"
         d="m 531.43883,72.676431 h 5.06555 v 2.68401 h -5.06555 z" />
      <g
         transform="matrix(3.1838789,0,0,3.1838789,-1315.6216,-103.62768)"
         style="fill:#ffffff;fill-opacity:1"
         id="g2018">
        <g
           style="fill:#ffffff;fill-opacity:1"
           clip-path="url(#clipPath2024)"
           id="g2020">
          <g
             style="fill:#ffffff;fill-opacity:1"
             transform="translate(585.1589,51.8305)"
             id="g2026">
            <path
               inkscape:connector-curvature="0"
               id="path2028"
               style="fill:#ffffff;fill-opacity:1;fill-rule:nonzero;stroke:none"
               d="M 0,0 V 3.979 C 0,4.228 -0.076,4.386 -0.269,4.386 H -1.973 V 5.233 H -3.036 V 3.88 c 0,-0.168 0.126,-0.337 0.286,-0.337 h 1.696 V 0.219 H -2.1 v -0.815 h 1.636 C -0.177,-0.596 0,-0.287 0,0" />
          </g>
          <g
             style="fill:#ffffff;fill-opacity:1"
             transform="translate(589.4623,51.2347)"
             id="g2030">
            <path
               inkscape:connector-curvature="0"
               id="path2032"
               style="fill:#ffffff;fill-opacity:1;fill-rule:nonzero;stroke:none"
               d="M 0,0 V 4.575 C 0,4.824 -0.093,4.982 -0.286,4.982 H -3.72 V 4.138 h 0.422 V 0.844 H -3.964 V 0 h 1.434 c 0.194,0 0.286,0.159 0.286,0.407 v 3.731 h 1.189 V 0 Z" />
          </g>
        </g>
      </g>
    </g>
    <g
       id="g6756"
       transform="matrix(0.94613929,0,0,-0.94613929,-907.80236,203.33807)">
      <path
         inkscape:connector-curvature="0"
         id="path1920"
         style="fill:#ffffff;fill-opacity:1;fill-rule:nonzero;stroke:none;stroke-width:3.1838789"
         d="m 734.17869,119.9443 h -7.59355 v -1.32131 h 7.59355 z m 0,4.57841 h -9.89231 c -0.53489,0 -0.88194,-0.16874 -0.88194,-0.5317 v -5.37121 h 1.18441 v 4.58479 h 9.58984 z" />
      <path
         inkscape:connector-curvature="0"
         id="path2034"
         style="fill:#0099ab;fill-opacity:1;fill-rule:nonzero;stroke:none;stroke-width:3.1838789"
         d="m 720.21101,80.505589 h 16.90003 v 46.455981 h -16.90003 z" />
      <path
         inkscape:connector-curvature="0"
         id="path2044"
         style="fill:#ffffff;fill-opacity:1;fill-rule:nonzero;stroke:none;stroke-width:3.1838789"
         d="m 734.17869,84.26575 h -7.59355 v -1.321309 h 7.59355 z m 0,4.578418 h -9.89231 c -0.53489,0 -0.88194,-0.168745 -0.88194,-0.531708 v -5.371203 h 1.18441 v 4.581602 h 9.58984 z" />
      <path
         d="m 732.88985,95.529995 h -8.60284 c -0.53807,0 -0.88193,-0.136907 -0.88193,-0.493501 v -3.760161 h -1.70974 v -1.337229 h 2.16503 c 0.35978,0 0.72274,0.235607 0.72274,0.528524 v 3.744241 h 8.47867 v -2.547102 h 1.11436 v 3.011949 c 0,0.528523 -0.66224,0.853279 -1.28629,0.853279"
         style="fill:#ffffff;fill-opacity:1;fill-rule:nonzero;stroke:none;stroke-width:3.1838789"
         id="path2048"
         inkscape:connector-curvature="0" />
      <path
         d="m 732.88985,102.0267 h -8.60284 c -0.53807,0 -0.88193,-0.13691 -0.88193,-0.4935 v -3.760162 h -1.70974 v -1.334045 h 2.16503 c 0.35978,0 0.72274,0.232423 0.72274,0.528523 v 3.741054 h 8.47867 v -2.547099 h 1.11436 v 3.015129 c 0,0.52534 -0.66224,0.8501 -1.28629,0.8501"
         style="fill:#ffffff;fill-opacity:1;fill-rule:nonzero;stroke:none;stroke-width:3.1838789"
         id="path2052"
         inkscape:connector-curvature="0" />
      <path
         d="m 733.29707,108.82778 h -9.01037 c -0.53808,0 -0.88194,-0.17193 -0.88194,-0.52534 v -4.91272 h 1.17804 v 4.11675 h 8.41499 v -4.11675 h 1.18122 v 4.91272 c 0,0.35341 -0.34705,0.52534 -0.88194,0.52534"
         style="fill:#ffffff;fill-opacity:1;fill-rule:nonzero;stroke:none;stroke-width:3.1838789"
         id="path2056"
         inkscape:connector-curvature="0" />
      <path
         d="m 733.29707,117.02564 h -8.92123 c -0.62722,0 -0.97108,-0.22924 -0.97108,-0.5731 v -6.13534 h 1.20032 v 1.27355 l 9.57393,-1.41364 v 1.27674 l -9.57393,1.39772 v 2.85594 h 8.39271 v -2.54392 h 1.18122 v 3.33671 c 0,0.35977 -0.34705,0.52534 -0.88194,0.52534"
         style="fill:#ffffff;fill-opacity:1;fill-rule:nonzero;stroke:none;stroke-width:3.1838789"
         id="path2060"
         inkscape:connector-curvature="0" />
      <path
         inkscape:connector-curvature="0"
         id="path2062"
         style="fill:#ffffff;fill-opacity:1;fill-rule:nonzero;stroke:none;stroke-width:3.1838789"
         d="m 734.17869,119.9443 h -7.59355 v -1.32131 h 7.59355 z m 0,4.57841 h -9.89231 c -0.53489,0 -0.88194,-0.16874 -0.88194,-0.5317 v -5.37121 h 1.18441 v 4.58479 h 9.58984 z" />
    </g>
  </g>
</svg>
